<?xml version="1.0" standalone="no"?>
<!DOCTYPE svg PUBLIC "-//W3C//DTD SVG 20010904//EN"
 "http://www.w3.org/TR/2001/REC-SVG-20010904/DTD/svg10.dtd">
<svg version="1.0" xmlns="http://www.w3.org/2000/svg"
 width="512.000000pt" height="512.000000pt" viewBox="0 0 512.000000 512.000000"
 preserveAspectRatio="xMidYMid meet">
<metadata>
Created by potrace 1.11, written by Peter Selinger 2001-2013
</metadata>
<g transform="translate(0.000000,512.000000) scale(0.100000,-0.100000)"
fill="#000000" stroke="none">
<path d="M0 2560 l0 -2560 2560 0 2560 0 0 2560 0 2560 -2560 0 -2560 0 0
-2560z m1690 1704 c511 -18 1590 -15 2000 6 328 16 417 17 431 3 10 -10 10
-26 1 -75 -17 -85 -30 -227 -38 -396 -6 -130 -9 -143 -30 -163 -18 -17 -30
-20 -57 -15 -44 8 -67 35 -110 128 -62 135 -116 202 -197 243 -81 41 -168 49
-561 49 -390 1 -411 -1 -423 -48 -3 -11 -6 -273 -6 -582 0 -456 3 -564 14
-579 12 -17 27 -18 258 -11 304 8 448 20 489 41 37 20 62 73 79 170 6 39 19
86 28 105 16 33 21 35 68 38 42 2 57 -1 78 -20 l27 -23 -22 -145 c-18 -120
-22 -197 -25 -454 -3 -350 -2 -346 -79 -346 -54 0 -77 26 -98 110 -32 133 -88
225 -159 258 -32 15 -80 23 -189 31 -202 15 -442 14 -457 -1 -15 -15 -17
-1110 -3 -1172 12 -50 61 -100 114 -116 62 -19 159 -38 230 -46 83 -9 125 -28
138 -61 15 -39 3 -71 -34 -94 -29 -18 -43 -20 -157 -15 -390 17 -727 18 -872
2 -162 -18 -192 -13 -208 29 -28 72 -1 102 125 140 171 52 248 106 288 205
l22 55 3 1235 c1 679 0 1245 -3 1258 -3 12 -20 31 -38 42 -27 17 -50 20 -162
20 -138 0 -343 -20 -441 -44 -266 -63 -379 -171 -532 -508 -49 -106 -74 -127
-132 -109 -22 6 -47 22 -55 35 -14 21 -13 32 9 117 35 138 56 300 63 506 3
100 10 187 14 194 8 14 82 28 119 23 14 -2 234 -11 490 -20z"/>
</g>
</svg>
